<svg id="Layer_1" data-name="Layer 1" xmlns="http://www.w3.org/2000/svg" viewBox="0 0 143.95 96.02"><defs><style>.cls-1{fill:#231f20;}.cls-2{fill:#ed1c24;}.cls-3{fill:none;stroke:#231f20;stroke-miterlimit:10;stroke-width:0.5px;}</style></defs><title>2</title><path class="cls-1" d="M117,44.14A24.94,24.94,0,1,1,92.07,69.08,24.94,24.94,0,0,1,117,44.14m0-2a26.94,26.94,0,1,0,26.94,26.94A27,27,0,0,0,117,42.14h0Z"/><path class="cls-1" d="M117,46.91A22.17,22.17,0,1,1,94.84,69.08,22.17,22.17,0,0,1,117,46.91m0-.5a22.67,22.67,0,1,0,22.67,22.67A22.7,22.7,0,0,0,117,46.41h0Z"/><path class="cls-1" d="M30.35,44.14A24.94,24.94,0,1,1,5.42,69.08,24.94,24.94,0,0,1,30.35,44.14m0-2A26.94,26.94,0,1,0,57.29,69.08,27,27,0,0,0,30.35,42.14h0Z"/><path class="cls-1" d="M30.35,46.91A22.17,22.17,0,1,1,8.18,69.08,22.17,22.17,0,0,1,30.35,46.91m0-.5A22.67,22.67,0,1,0,53,69.08,22.7,22.7,0,0,0,30.35,46.41h0Z"/><path d="M116.75,39.86a29,29,0,0,0-12.22,2.66h-0.06a0.16,0.16,0,0,1-.14-0.08L102.6,39a0.17,0.17,0,0,1,0-.12,1.27,1.27,0,0,0,0-.86l-9-21.61a0.16,0.16,0,0,1,.07-0.2l4.93-2.93,1.71-1.58-1-6.08a1.27,1.27,0,0,0-.82-1L96.75,4a0.16,0.16,0,0,1-.1-0.17,0.15,0.15,0,0,1,.15-0.13h0.88a1.87,1.87,0,0,0,0-3.74H95a1.87,1.87,0,0,0-1.87,1.87,1.83,1.83,0,0,0,.12.65,0.14,0.14,0,0,1,0,.16,0.16,0.16,0,0,1-.11.05H93L91.3,2.11A1.16,1.16,0,0,0,90.88,2a1.26,1.26,0,0,0-1.19.83,1.3,1.3,0,0,0,0,1,1.26,1.26,0,0,0,.72.64l6.33,2.25a0.16,0.16,0,0,1,.11.12l0.64,4a0.15,0.15,0,0,1-.08.16L91.21,14.7l-0.13.1L91,14.86l-0.09.1L90.86,15a1.18,1.18,0,0,0-.08.12l0,0.09a0.59,0.59,0,0,0,0,.13l0,0.1a0.9,0.9,0,0,0,0,.14s0,0.06,0,.1a0.66,0.66,0,0,0,0,.13,0.37,0.37,0,0,0,0,.11,0.3,0.3,0,0,0,0,.12,1.27,1.27,0,0,0,0,.16l3.07,7.37a0.14,0.14,0,0,1,0,.11l-3.39,9.79a31.29,31.29,0,0,1-18.53,19L59.72,57.13h0a0.14,0.14,0,0,1-.15-0.1L52.69,40.13a1.27,1.27,0,0,0-.91-0.76,0.17,0.17,0,0,1-.11-0.09l-5.52-13.2a0.63,0.63,0,0,0-.6-0.4,0.56,0.56,0,0,0-.25.05,0.63,0.63,0,0,0-.35.35,0.62,0.62,0,0,0,0,.5l5.52,13.2a0.2,0.2,0,0,1,0,.15,1.25,1.25,0,0,0-.11,1.14l1.08,2.67a0.17,0.17,0,0,1,0,.17L48.66,47a0.16,0.16,0,0,1-.12.06,0.18,0.18,0,0,1-.1,0A29,29,0,0,0,4,55.71a0.15,0.15,0,0,1-.14.09l-0.07,0-0.34-.17-0.11,0a0.24,0.24,0,0,0-.22.14,0.23,0.23,0,0,0,0,.18,0.26,0.26,0,0,0,.12.15l0.34,0.16a0.16,0.16,0,0,1,.07.21A28.66,28.66,0,0,0,1,65l2.2-.89L6.08,63h0a23,23,0,0,1,1.2-3.6c0.11-.29.24-0.56,0.37-0.84l0.06-.13,0.37-.73a25.74,25.74,0,0,1,1.5-2.54,25.32,25.32,0,0,1,6.74-6.74,25.62,25.62,0,0,1,4.24-2.31,25.06,25.06,0,0,1,19.43,0,25.22,25.22,0,0,1,4.24,2.31A21.48,21.48,0,0,1,46,49.77a0.14,0.14,0,0,1,.06.11,0.19,0.19,0,0,1,0,.12l-0.21.23-0.28.31L44.26,52,43,53.5,31.5,66.6a0.17,0.17,0,0,1-.12,0H30.47a2.51,2.51,0,0,0-1.71.68,1.84,1.84,0,0,0-.18.19,2.35,2.35,0,0,0-.19.25l0,0a2.42,2.42,0,0,0-.32.74l0,0.15a0.17,0.17,0,0,0,0,.07,0,0,0,0,0,0,0,2.64,2.64,0,0,0,0,.29v0.11a2.51,2.51,0,0,0,2,2.43l20.26,4.71L51,76.51l2,0.47,0.69,0.16,2.54,0.59L57.6,78l4.64,1.08a0.18,0.18,0,0,1,.1.07,0.17,0.17,0,0,1,0,.12L60.8,85.67a0.15,0.15,0,0,1-.15.12H58.41V87.9h6.33V85.79h-2a0.14,0.14,0,0,1-.12-0.06,0.17,0.17,0,0,1,0-.14l1.46-6a0.16,0.16,0,0,1,.15-0.12h0a4,4,0,0,0,.49,0,6.23,6.23,0,0,0,2.92-.73l0.14-.08L68,78.53l0.25-.17,0.13-.09L68.76,78l0.1-.09c0.11-.1.22-0.2,0.33-0.32l0-.05c0.12-.13.23-0.25,0.35-0.4l0.27-.37,0.13-.2,0.1-.17c0.06-.09.1-0.18,0.15-0.27L70.29,76a6.08,6.08,0,0,0,.66-2.77,6.2,6.2,0,0,0-1.07-3.5,0.17,0.17,0,0,1,0-.2l0.48-.5a0.13,0.13,0,0,1,.11,0h0a0.14,0.14,0,0,1,.12.06,7.08,7.08,0,0,1,1.33,4.47,7.23,7.23,0,0,1-5.79,6.81l0.29,1.07a8.34,8.34,0,0,0,4.9-13.21,0.18,0.18,0,0,1,0-.21L99.53,37.88a0.16,0.16,0,0,1,.11,0h0a0.17,0.17,0,0,1,.12.1L100.23,39a1.23,1.23,0,0,0,.76.7,0.16,0.16,0,0,1,.08.08l1.73,3.44a0.16,0.16,0,0,1-.06.21A29.27,29.27,0,0,0,87.48,69.13c0,0.29,0,.58,0,0.87a0.14,0.14,0,0,1-.15.16l-0.45,0a0.3,0.3,0,0,0-.17.08,0.25,0.25,0,0,0,.19.42l0.46,0a0.15,0.15,0,0,1,.16.15,29.3,29.3,0,0,0,.94,5.89l1.24-1.09L90,75.39l2.19-2h0a21.87,21.87,0,0,1-.29-2.3l0-.34V70.59l0-.77v0c0-.22,0-0.43,0-0.64a25,25,0,0,1,11-20.7c0.58-.39,1.21-0.78,1.87-1.14a0.11,0.11,0,0,1,.08,0h0a0.27,0.27,0,0,1,.1.08l0.75,1.51h0l0.21,0.43,0.27,0.54,0.31,0.61h0l8.54,17a0.17,0.17,0,0,1,0,.18,2.27,2.27,0,0,0-.49,1.08v0a0.11,0.11,0,0,1,0,0,2.72,2.72,0,0,0,0,.78,0.08,0.08,0,0,1,0,0,2.32,2.32,0,1,0,2.26-2.84h-0.11a0.15,0.15,0,0,1-.14-0.09l-8.85-17.65-0.28-.55-1-1.93a0.17,0.17,0,0,1,0-.12,0.12,0.12,0,0,1,.08-0.09l0.18-.09,0.37-.17a24.86,24.86,0,0,1,9.72-2,25.37,25.37,0,0,1,2.9.17L121.23,42l1.07-1.61A29.4,29.4,0,0,0,116.75,39.86ZM60.47,66.12l0.26,0.63a0.16,0.16,0,0,1,0,.15,0.15,0.15,0,0,1-.13.07l-1.86,0a0.16,0.16,0,0,1-.16-0.14c0-.21,0-0.42,0-0.63a0.16,0.16,0,0,1,0-.13,0.16,0.16,0,0,1,.11,0l1.66,0A0.16,0.16,0,0,1,60.47,66.12Zm-1.84,1.69a0.12,0.12,0,0,1,0-.11,0.16,0.16,0,0,1,.11,0l2.21,0a0.16,0.16,0,0,1,.15.1L61.21,68a0.16,0.16,0,0,1-.06.19A6.28,6.28,0,0,0,58.9,71a0.15,0.15,0,0,1-.14.1h0a0.17,0.17,0,0,1-.12-0.17c0-.6.06-1.2,0.06-1.78S58.64,68.25,58.63,67.81ZM49.77,48l2.16-2.46a0.13,0.13,0,0,1,.12,0h0a0.14,0.14,0,0,1,.12.09l7.6,18.81a0.16,0.16,0,0,1,0,.15,0.16,0.16,0,0,1-.13.06l-1.21-.06a0.15,0.15,0,0,1-.15-0.13,28.71,28.71,0,0,0-8.5-16.2A0.15,0.15,0,0,1,49.77,48ZM33.66,66.42L44,54.6,45.41,53l1.34-1.54L47,51.2,47.19,51a0.16,0.16,0,0,1,.11,0h0a0.15,0.15,0,0,1,.11,0l0.12,0.12c0.14,0.12.27,0.25,0.4,0.38a24.85,24.85,0,0,1,5.35,7.93,24.54,24.54,0,0,1,1.47,4.79,0.17,0.17,0,0,1,0,.14,0.17,0.17,0,0,1-.12,0l-0.42,0-0.29,0-2.16-.11-0.36,0L51,64.2h0l-13.69-.71L36.1,64.81a0.55,0.55,0,0,0-.14.62,0.55,0.55,0,0,0,.52.35l14.29,0.15h1.36l2,0h0.74a0.16,0.16,0,0,1,.16.13l0.06,0.64a0.14,0.14,0,0,1,0,.12,0.16,0.16,0,0,1-.11.05h-0.3l-2.48,0-2.33,0-16.09-.17a0.16,0.16,0,0,1-.14-0.09A0.15,0.15,0,0,1,33.66,66.42Zm-1.29,1.47,0.41-.47a0.18,0.18,0,0,1,.12,0l17.67,0.19h0l1.7,0,2.11,0H55a0.15,0.15,0,0,1,.16.15c0,0.45,0,.91,0,1.37s0,1.21-.07,1.82a0.16,0.16,0,0,1,0,.11,0.2,0.2,0,0,1-.11,0l-0.25,0v0l-2.5-.31H52.19l-0.26,0-0.51-.06-0.68-.08L32.6,68.44a0.16,0.16,0,0,1-.13-0.11,2.05,2.05,0,0,0-.12-0.26A0.17,0.17,0,0,1,32.37,67.89Zm27.92,9.94a0.14,0.14,0,0,1-.13.08h0l-2.83-.65-0.73-.17L54,76.48l-0.65-.15-2-.47-7-1.63L31.68,71.3a0.14,0.14,0,0,1-.11-0.12A0.14,0.14,0,0,1,31.63,71a2.17,2.17,0,0,0,.59-0.62,0.17,0.17,0,0,1,.14-0.07l17.37,2.06L52,72.66l2.06,0.25h0.12l0.22,0,0.34,0,2.6,0.31h0.09L58,73.37l0.34,0a0.15,0.15,0,0,1,.14.15,6.23,6.23,0,0,0,1.79,4.08A0.15,0.15,0,0,1,60.29,77.83ZM70.2,74a5.44,5.44,0,0,1-.71,2.11l-0.06.09a1.13,1.13,0,0,1-.15.23L69,76.71,68.83,77l-0.15.16s-0.18.18-.18,0.18l-0.22.19-0.14.12-0.29.22-0.12.08-0.37.22-0.06,0a5.55,5.55,0,0,1-2.59.64H64.43a5.6,5.6,0,0,1-2-.49,5.72,5.72,0,0,1-1.62-1.12,5.53,5.53,0,0,1-1.6-3.48c0-.15,0-0.29,0-0.44a5.76,5.76,0,0,1,.31-1.83,5.49,5.49,0,0,1,1.31-2.09,6.16,6.16,0,0,1,.57-0.49,5.48,5.48,0,0,1,2.7-1.09,4.73,4.73,0,0,1,.65,0H65a6.11,6.11,0,0,1,.67.07l0.21,0,0.19,0L66.41,68l0.13,0,0.39,0.15,0.09,0,0.32,0.16,0.08,0,0.06,0,0.44,0.28a5.76,5.76,0,0,1,1.15,1.11c0.13,0.17.24,0.34,0.35,0.51A5.44,5.44,0,0,1,70.2,74Zm-7-7.71a0.16,0.16,0,0,1,0-.15A0.17,0.17,0,0,1,63.38,66H65l0.42,0a0.17,0.17,0,0,1,.11.06,0.15,0.15,0,0,1,0,.13l-0.16.67a0.16,0.16,0,0,1-.15.12l-0.5,0-1.08,0a0.17,0.17,0,0,1-.15-0.09ZM67,67.32l0.16-.67a0.18,0.18,0,0,1,.09-0.1l0.07,0h0.06a8.43,8.43,0,0,1,1.08.55,0.15,0.15,0,0,1,.07.12,0.14,0.14,0,0,1,0,.12L68,67.85a0.15,0.15,0,0,1-.11,0,0.11,0.11,0,0,1-.08,0,5.49,5.49,0,0,0-.73-0.36A0.16,0.16,0,0,1,67,67.32ZM79,56.13l-9.5,10.15a0.16,0.16,0,0,1-.11,0l-0.09,0a8.24,8.24,0,0,0-1.67-.86,0.15,0.15,0,0,1-.1-0.18l1.08-4.42a0.16,0.16,0,0,1,.15-0.12H71V58.62H64.68v2.12h2a0.16,0.16,0,0,1,.13.06,0.13,0.13,0,0,1,0,.13l-1,4a0.16,0.16,0,0,1-.15.12h0l-0.29,0H65.34l-0.31,0H64.94l-2.18-.11a0.19,0.19,0,0,1-.14-0.1L60.43,59.3a0.15,0.15,0,0,1,0-.13,0.24,0.24,0,0,1,.09-0.08l12.12-4.56a35.19,35.19,0,0,0,3.82-1.72,0.1,0.1,0,0,1,.07,0,0.16,0.16,0,0,1,.13.06L79,55.93A0.16,0.16,0,0,1,79,56.13Zm19.55-20.9L80.13,54.94A0.17,0.17,0,0,1,80,55h0a0.19,0.19,0,0,1-.11-0.07l-2.05-2.68a0.13,0.13,0,0,1,0-.12A0.14,0.14,0,0,1,77.88,52,33.42,33.42,0,0,0,92.42,34.2L94.91,27a0.17,0.17,0,0,1,.15-0.11,0.16,0.16,0,0,1,.15.1l3.38,8.09A0.17,0.17,0,0,1,98.56,35.23Z"/><path d="M42,24.46c5.19,0,11.57-2.36,11.79-5.31a1.32,1.32,0,0,0-1.32-1.49H36A1.33,1.33,0,0,0,34.7,19C34.7,22,36.74,24.46,42,24.46Z"/><path d="M42,24.3c-6.23,0-7.16-3.33-7.16-5.32A1.17,1.17,0,0,1,36,17.81H52.5A1.17,1.17,0,0,1,53.67,19a1.21,1.21,0,0,1,0,.14C53.44,22,47.11,24.3,42,24.3Z"/><path class="cls-2" d="M51.93,70.73l0.26,0Z"/><polygon class="cls-2" points="54.73 67.6 54.73 67.61 54.39 67.6 54.73 67.6"/><path class="cls-2" d="M91.84,70.77l0,0.34h0Z"/><line class="cls-3" x1="3.84" y1="56.11" x2="30.15" y2="69.23"/><polygon class="cls-1" points="91.36 70.42 92.25 70.58 92.25 71.94 90.99 72.22 91.32 70.77 91.36 70.42"/><line class="cls-3" x1="87.39" y1="70.42" x2="116.59" y2="68.99"/></svg>