<svg id="Layer_1" data-name="Layer 1" xmlns="http://www.w3.org/2000/svg" viewBox="0 0 237 153.07"><defs><style>.cls-1{fill:#010101;}</style></defs><title>bicycle</title><path class="cls-1" d="M465.63,268.07a49.26,49.26,0,0,0-13,1.75l-12.72-33.07,4.6-4.73a5,5,0,0,0-.05-6.94l-9.87-9.87a5,5,0,0,0-3.49-1.45H406.38a4.94,4.94,0,1,0,0,9.88H429l5,5-3.41,3.5a5,5,0,0,0-1.08,5.18s0,0,0,0l4.54,11.8-67.19,8.4v-9.22h14.81a4.94,4.94,0,1,0,0-9.88H352.06a4.94,4.94,0,0,0,0,9.88H357v13.47l-6.9,11.83a49.37,49.37,0,1,0,25.65,53.7h6.78a14.81,14.81,0,1,0,25.67-14l31.63-49.2,3.55,9.25a49.36,49.36,0,1,0,22.25-5.3Zm-69.13,39.5a14.54,14.54,0,0,0-2.77.26L370,267.1l61.1-7.64L399.9,308A15.06,15.06,0,0,0,396.5,307.57Zm-69.13,49.37a39.5,39.5,0,1,1,17.75-74.78l-22,37.74a4.93,4.93,0,0,0,4.26,7.42h38.25A39.56,39.56,0,0,1,327.38,356.94Zm39.5-39.51H336l17.36-29.75A39.42,39.42,0,0,1,366.88,317.44Zm-8.5-38.4,3.56-6.11,23.26,39.88a15,15,0,0,0-2.67,4.63h-5.79A49.3,49.3,0,0,0,358.38,279Zm38.13,48.28a4.94,4.94,0,1,1,4.94-4.93A4.95,4.95,0,0,1,396.5,327.32Zm69.13,29.63A39.49,39.49,0,0,1,447,282.64L461,319.21a5,5,0,0,0,4.61,3.17,5.12,5.12,0,0,0,1.77-.33,5,5,0,0,0,2.84-6.38l-14.08-36.58a39.5,39.5,0,1,1,9.47,77.85Z" transform="translate(-278 -213.75)"/></svg>